{
	"animations":[{
		"samplers":[{
			"interpolation":"LINEAR",
			"input":8,
			"output":9
		},
		{
			"interpolation":"LINEAR",
			"input":10,
			"output":11
		},
		{
			"interpolation":"LINEAR",
			"input":20,
			"output":21
		},
		{
			"interpolation":"LINEAR",
			"input":26,
			"output":27
		}],
		"channels":[{
			"sampler":0,
			"target":{
				"node":2,
				"path":"translation"
			}
		},
		{
			"sampler":1,
			"target":{
				"node":2,
				"path":"rotation"
			}
		},
		{
			"sampler":2,
			"target":{
				"node":6,
				"path":"rotation"
			}
		},
		{
			"sampler":3,
			"target":{
				"node":7,
				"path":"rotation"
			}
		}]
	}],
	"asset":{
		"version":"2.0",
		"generator":"Created using the official Cinema 4D glTF Exporter 1.000x284978"
	},
	"scenes":[{
		"nodes":[0,
		5]
	}],
	"nodes":[{
		"name":"Null.1",
		"translation":[0.0,
		-3.9308876991271974,
		0.0],
		"rotation":[0.0,
		0.0,
		0.0,
		-1.0],
		"scale":[0.4000000059604645,
		0.4000000059604645,
		0.4000000059604645],
		"children":[1,
		2]
	},
	{
		"name":"Cube_collider",
		"translation":[0.0,
		12.110413551330567,
		0.0],
		"rotation":[0.0,
		0.0,
		0.0,
		-1.0],
		"scale":[2.5,
		2.5,
		2.5],
		"mesh":0
	},
	{
		"name":"Crystal",
		"translation":[0.0,
		12.905424118041993,
		0.0],
		"rotation":[0.0,
		0.0,
		0.0,
		-1.0],
		"scale":[0.4000000059604645,
		0.6000000238418579,
		0.4000000059604645],
		"mesh":1,
		"children":[3]
	},
	{
		"name":"Null.2",
		"translation":[4.752434522269902e-16,
		-1.0502443313598633,
		0.9701643586158752],
		"rotation":[0.0,
		-2.4492937051703359e-16,
		0.0,
		-1.0],
		"scale":[0.1875,
		0.125,
		0.1875],
		"children":[4]
	},
	{
		"name":"Big.2",
		"translation":[-4.2740173434686686e-16,
		7.105427357601002e-15,
		8.881784197001253e-16],
		"rotation":[0.0,
		-1.0,
		0.0,
		-2.832769343193999e-16],
		"scale":[2.5,
		2.5,
		1.0],
		"mesh":2
	},
	{
		"name":"Null",
		"translation":[0.0,
		0.0,
		0.0],
		"rotation":[0.0,
		0.0,
		0.0,
		-1.0],
		"scale":[0.004999999888241291,
		0.004999999888241291,
		0.004999999888241291],
		"children":[6,
		7,
		8]
	},
	{
		"name":"Cloner",
		"translation":[0.0,
		28.465368270874025,
		0.0],
		"rotation":[0.0,
		-3.469446951953614e-18,
		0.0,
		-1.0],
		"scale":[1.0,
		1.0,
		1.0],
		"mesh":3
	},
	{
		"name":"Cloner.2",
		"translation":[0.0,
		28.465368270874025,
		0.0],
		"rotation":[0.0,
		0.0,
		0.0,
		-1.0],
		"scale":[1.0,
		1.0,
		1.0],
		"mesh":4
	},
	{
		"name":"Cylinder",
		"translation":[0.0,
		-34.80924987792969,
		0.0],
		"rotation":[0.0,
		0.0,
		0.0,
		-1.0],
		"scale":[200.0,
		200.0,
		200.0],
		"children":[9,
		10]
	},
	{
		"name":"Cylinder-BLACK",
		"translation":[0.0,
		0.0,
		0.0],
		"rotation":[0.0,
		0.0,
		0.0,
		-1.0],
		"scale":[1.0,
		1.0,
		1.0],
		"mesh":5
	},
	{
		"name":"Cylinder-PURPLE",
		"translation":[0.0,
		0.0,
		0.0],
		"rotation":[0.0,
		0.0,
		0.0,
		-1.0],
		"scale":[1.0,
		1.0,
		1.0],
		"mesh":6
	}],
	"meshes":[{
		"name":"Cube_collider",
		"primitives":[{
			"attributes":{
				"POSITION":1,
				"NORMAL":2,
				"TEXCOORD_0":3
			},
			"indices":0
		}]
	},
	{
		"name":"Crystal",
		"primitives":[{
			"attributes":{
				"POSITION":5,
				"NORMAL":6,
				"TEXCOORD_0":7
			},
			"indices":4,
			"material":0
		}]
	},
	{
		"name":"Big.2",
		"primitives":[{
			"attributes":{
				"POSITION":13,
				"NORMAL":14,
				"TEXCOORD_0":15
			},
			"indices":12,
			"material":1
		}]
	},
	{
		"name":"Cloner",
		"primitives":[{
			"attributes":{
				"POSITION":17,
				"NORMAL":18,
				"TEXCOORD_0":19
			},
			"indices":16,
			"material":0
		}]
	},
	{
		"name":"Cloner.2",
		"primitives":[{
			"attributes":{
				"POSITION":23,
				"NORMAL":24,
				"TEXCOORD_0":25
			},
			"indices":22,
			"material":0
		}]
	},
	{
		"name":"Cylinder-BLACK",
		"primitives":[{
			"attributes":{
				"POSITION":29,
				"NORMAL":30,
				"TEXCOORD_0":31
			},
			"indices":28,
			"material":2
		}]
	},
	{
		"name":"Cylinder-PURPLE",
		"primitives":[{
			"attributes":{
				"POSITION":33,
				"NORMAL":34,
				"TEXCOORD_0":35
			},
			"indices":32,
			"material":0
		}]
	}],
	"accessors":[{
		"bufferView":0,
		"type":"SCALAR",
		"componentType":5123,
		"count":36,
		"byteOffset":0,
		"min":[0],
		"max":[23]
	},
	{
		"bufferView":1,
		"type":"VEC3",
		"componentType":5126,
		"count":24,
		"byteOffset":0,
		"min":[-0.25,
		-0.25,
		-0.25],
		"max":[0.25,
		0.25,
		0.25]
	},
	{
		"bufferView":1,
		"type":"VEC3",
		"componentType":5126,
		"count":24,
		"byteOffset":12,
		"min":[-1.0,
		-1.0,
		-1.0],
		"max":[1.0,
		1.0,
		1.0]
	},
	{
		"bufferView":1,
		"type":"VEC2",
		"componentType":5126,
		"count":24,
		"byteOffset":24,
		"min":[0.0,
		0.0],
		"max":[1.0,
		1.0]
	},
	{
		"bufferView":2,
		"type":"SCALAR",
		"componentType":5123,
		"count":132,
		"byteOffset":0,
		"min":[0],
		"max":[60]
	},
	{
		"bufferView":3,
		"type":"VEC3",
		"componentType":5126,
		"count":61,
		"byteOffset":0,
		"min":[-1.0,
		-2.975529670715332,
		-1.0],
		"max":[1.0,
		1.6618373394012452,
		1.0]
	},
	{
		"bufferView":3,
		"type":"VEC3",
		"componentType":5126,
		"count":61,
		"byteOffset":12,
		"min":[-0.969042956829071,
		-0.9924338459968567,
		-0.9686471819877625],
		"max":[0.968444287776947,
		0.9301009774208069,
		0.9688217639923096]
	},
	{
		"bufferView":3,
		"type":"VEC2",
		"componentType":5126,
		"count":61,
		"byteOffset":24,
		"min":[0.016944589093327524,
		0.014324529096484185],
		"max":[0.9827113151550293,
		0.9809273481369019]
	},
	{
		"bufferView":4,
		"type":"SCALAR",
		"componentType":5126,
		"count":181,
		"byteOffset":0,
		"min":[0.0],
		"max":[6.0]
	},
	{
		"bufferView":4,
		"type":"VEC3",
		"componentType":5126,
		"count":181,
		"byteOffset":724,
		"min":[0.0,
		12.904999732971192,
		0.0],
		"max":[0.0,
		13.46562385559082,
		0.0]
	},
	{
		"bufferView":5,
		"type":"SCALAR",
		"componentType":5126,
		"count":181,
		"byteOffset":0,
		"min":[0.0],
		"max":[6.0]
	},
	{
		"bufferView":5,
		"type":"VEC4",
		"componentType":5126,
		"count":181,
		"byteOffset":724,
		"min":[0.0,
		-0.9999925494194031,
		-7.449046712793006e-9,
		-1.0],
		"max":[7.401719237520865e-9,
		0.0,
		7.450539740716522e-9,
		1.0]
	},
	{
		"bufferView":6,
		"type":"SCALAR",
		"componentType":5123,
		"count":1020,
		"byteOffset":0,
		"min":[0],
		"max":[359]
	},
	{
		"bufferView":7,
		"type":"VEC3",
		"componentType":5126,
		"count":360,
		"byteOffset":0,
		"min":[-1.4489729404449463,
		-0.968987762928009,
		-0.25],
		"max":[1.4489729404449463,
		0.5886446833610535,
		8.881784197001253e-16]
	},
	{
		"bufferView":7,
		"type":"VEC3",
		"componentType":5126,
		"count":360,
		"byteOffset":12,
		"min":[-1.0,
		-1.0,
		-1.0],
		"max":[1.0,
		1.0,
		1.0]
	},
	{
		"bufferView":7,
		"type":"VEC2",
		"componentType":5126,
		"count":360,
		"byteOffset":24,
		"min":[0.0,
		0.0],
		"max":[1.0,
		1.0]
	},
	{
		"bufferView":8,
		"type":"SCALAR",
		"componentType":5123,
		"count":168,
		"byteOffset":0,
		"min":[0],
		"max":[111]
	},
	{
		"bufferView":9,
		"type":"VEC3",
		"componentType":5126,
		"count":112,
		"byteOffset":0,
		"min":[-192.26943969726563,
		9.14314079284668,
		-192.26943969726563],
		"max":[192.26943969726563,
		11.222258567810059,
		192.26943969726563]
	},
	{
		"bufferView":9,
		"type":"VEC3",
		"componentType":5126,
		"count":112,
		"byteOffset":12,
		"min":[-0.20664915442466737,
		0.9781475067138672,
		-0.20664912462234498],
		"max":[0.20664915442466737,
		0.9781476855278015,
		0.20664915442466737]
	},
	{
		"bufferView":9,
		"type":"VEC2",
		"componentType":5126,
		"count":112,
		"byteOffset":24,
		"min":[0.0,
		0.0],
		"max":[1.0,
		1.0]
	},
	{
		"bufferView":10,
		"type":"SCALAR",
		"componentType":5126,
		"count":181,
		"byteOffset":0,
		"min":[0.0],
		"max":[6.0]
	},
	{
		"bufferView":10,
		"type":"VEC4",
		"componentType":5126,
		"count":181,
		"byteOffset":724,
		"min":[0.0,
		-1.0,
		0.0,
		-1.0],
		"max":[0.0,
		-3.469446951953614e-18,
		0.0,
		1.0]
	},
	{
		"bufferView":11,
		"type":"SCALAR",
		"componentType":5123,
		"count":168,
		"byteOffset":0,
		"min":[0],
		"max":[111]
	},
	{
		"bufferView":12,
		"type":"VEC3",
		"componentType":5126,
		"count":112,
		"byteOffset":0,
		"min":[-238.36660766601563,
		-10.182700157165528,
		-238.36660766601563],
		"max":[238.36660766601563,
		-10.182699203491211,
		238.36660766601563]
	},
	{
		"bufferView":12,
		"type":"VEC3",
		"componentType":5126,
		"count":112,
		"byteOffset":12,
		"min":[0.0,
		1.0,
		0.0],
		"max":[5.198586094934399e-8,
		1.0,
		7.995261341875448e-8]
	},
	{
		"bufferView":12,
		"type":"VEC2",
		"componentType":5126,
		"count":112,
		"byteOffset":24,
		"min":[0.0,
		0.0],
		"max":[1.0,
		1.0]
	},
	{
		"bufferView":13,
		"type":"SCALAR",
		"componentType":5126,
		"count":181,
		"byteOffset":0,
		"min":[0.0],
		"max":[6.0]
	},
	{
		"bufferView":13,
		"type":"VEC4",
		"componentType":5126,
		"count":181,
		"byteOffset":724,
		"min":[0.0,
		-1.0,
		-2.5482487231442976e-9,
		-1.0],
		"max":[7.001255575289633e-9,
		0.0,
		3.948206206416671e-9,
		0.9998477101325989]
	},
	{
		"bufferView":14,
		"type":"SCALAR",
		"componentType":5123,
		"count":714,
		"byteOffset":0,
		"min":[0],
		"max":[224]
	},
	{
		"bufferView":15,
		"type":"VEC3",
		"componentType":5126,
		"count":225,
		"byteOffset":0,
		"min":[-1.2538279294967652,
		0.15000000596046449,
		-1.2223918437957764],
		"max":[1.2538279294967652,
		0.37783363461494448,
		1.2223918437957764]
	},
	{
		"bufferView":15,
		"type":"VEC3",
		"componentType":5126,
		"count":225,
		"byteOffset":12,
		"min":[-1.0,
		-1.0,
		-0.974906325340271],
		"max":[1.0,
		1.0,
		0.974906325340271]
	},
	{
		"bufferView":15,
		"type":"VEC2",
		"componentType":5126,
		"count":225,
		"byteOffset":24,
		"min":[0.08205734193325043,
		0.09253604710102081],
		"max":[0.9179426431655884,
		0.9074639081954956]
	},
	{
		"bufferView":16,
		"type":"SCALAR",
		"componentType":5123,
		"count":42,
		"byteOffset":0,
		"min":[0],
		"max":[14]
	},
	{
		"bufferView":17,
		"type":"VEC3",
		"componentType":5126,
		"count":15,
		"byteOffset":0,
		"min":[-0.6691693663597107,
		0.28654688596725466,
		-0.6523918509483337],
		"max":[0.6691693663597107,
		0.28654688596725466,
		0.6523918509483337]
	},
	{
		"bufferView":17,
		"type":"VEC3",
		"componentType":5126,
		"count":15,
		"byteOffset":12,
		"min":[0.0,
		1.0,
		0.0],
		"max":[0.0,
		1.0,
		0.0]
	},
	{
		"bufferView":17,
		"type":"VEC2",
		"componentType":5126,
		"count":15,
		"byteOffset":24,
		"min":[0.27694350481033327,
		0.28253602981567385],
		"max":[0.7230563163757324,
		0.7174637317657471]
	}],
	"bufferViews":[{
		"buffer":0,
		"byteOffset":0,
		"byteLength":72,
		"target":34963
	},
	{
		"buffer":0,
		"byteOffset":72,
		"byteLength":768,
		"target":34962,
		"byteStride":32
	},
	{
		"buffer":1,
		"byteOffset":0,
		"byteLength":264,
		"target":34963
	},
	{
		"buffer":1,
		"byteOffset":264,
		"byteLength":1952,
		"target":34962,
		"byteStride":32
	},
	{
		"buffer":2,
		"byteOffset":0,
		"byteLength":2896
	},
	{
		"buffer":2,
		"byteOffset":2896,
		"byteLength":3620
	},
	{
		"buffer":3,
		"byteOffset":0,
		"byteLength":2040,
		"target":34963
	},
	{
		"buffer":3,
		"byteOffset":2040,
		"byteLength":11520,
		"target":34962,
		"byteStride":32
	},
	{
		"buffer":4,
		"byteOffset":0,
		"byteLength":336,
		"target":34963
	},
	{
		"buffer":4,
		"byteOffset":336,
		"byteLength":3584,
		"target":34962,
		"byteStride":32
	},
	{
		"buffer":5,
		"byteOffset":0,
		"byteLength":3620
	},
	{
		"buffer":6,
		"byteOffset":0,
		"byteLength":336,
		"target":34963
	},
	{
		"buffer":6,
		"byteOffset":336,
		"byteLength":3584,
		"target":34962,
		"byteStride":32
	},
	{
		"buffer":7,
		"byteOffset":0,
		"byteLength":3620
	},
	{
		"buffer":8,
		"byteOffset":0,
		"byteLength":1428,
		"target":34963
	},
	{
		"buffer":8,
		"byteOffset":1428,
		"byteLength":7200,
		"target":34962,
		"byteStride":32
	},
	{
		"buffer":9,
		"byteOffset":0,
		"byteLength":84,
		"target":34963
	},
	{
		"buffer":9,
		"byteOffset":84,
		"byteLength":480,
		"target":34962,
		"byteStride":32
	}],
	"buffers":[{
		"uri":"data:application/octet-stream;base64,",
		"byteLength":840
	},
	{
		"uri":"data:application/octet-stream;base64,",
		"byteLength":2216
	},
	{
		"uri":"data:application/octet-stream;base64,",
		"byteLength":6516
	},
	{
		"uri":"data:application/octet-stream;base64,",
		"byteLength":13560
	},
	{
		"uri":"data:application/octet-stream;base64,",
		"byteLength":3920
	},
	{
		"uri":"data:application/octet-stream;base64,",
		"byteLength":3620
	},
	{
		"uri":"data:application/octet-stream;base64,",
		"byteLength":3920
	},
	{
		"uri":"data:application/octet-stream;base64,",
		"byteLength":3620
	},
	{
		"uri":"data:application/octet-stream;base64,",
		"byteLength":8628
	},
	{
		"uri":"data:application/octet-stream;base64,",
		"byteLength":564
	}],
	"materials":[{
		"pbrMetallicRoughness":{
			"baseColorFactor":[0.4862745098039216,
			0.0,
			1.0,
			1.0],
			"metallicFactor":1.0,
			"roughnessFactor":0.3
		},
		"emissiveFactor":[0.2431372549019608,
		0.0,
		0.5],
		"alphaMode":"OPAQUE",
		"doubleSided":false,
		"name":"PURPLE"
	},
	{
		"pbrMetallicRoughness":{
			"baseColorFactor":[0.8,
			0.8,
			0.8,
			0.5],
			"metallicFactor":1.0,
			"roughnessFactor":0.3
		},
		"emissiveFactor":[0.65,
		0.65,
		0.65],
		"alphaMode":"BLEND",
		"doubleSided":false,
		"name":"WHITE"
	},
	{
		"pbrMetallicRoughness":{
			"baseColorFactor":[0.03,
			0.028199999999999997,
			0.028199999999999997,
			1.0],
			"metallicFactor":1.0,
			"roughnessFactor":0.3
		},
		"emissiveFactor":[0.0,
		0.0,
		0.0],
		"alphaMode":"OPAQUE",
		"doubleSided":false,
		"name":"BLACK"
	}]
}